<?xml version="1.0" standalone="no"?>
<!DOCTYPE svg PUBLIC "-//W3C//DTD SVG 20010904//EN"
 "http://www.w3.org/TR/2001/REC-SVG-20010904/DTD/svg10.dtd">
<svg version="1.0" xmlns="http://www.w3.org/2000/svg"
 width="225.000000pt" height="225.000000pt" viewBox="0 0 225.000000 225.000000"
 preserveAspectRatio="xMidYMid meet">
<metadata>
Created by potrace 1.14, written by Peter Selinger 2001-2017
</metadata>
<g transform="translate(0.000000,225.000000) scale(0.100000,-0.100000)"
fill="#000000" stroke="none">
<path d="M1674 1923 c-5 -1 -27 -7 -49 -12 -23 -6 -50 -19 -60 -28 -11 -10
-36 -30 -56 -45 -74 -55 -151 -139 -156 -169 -6 -41 28 -68 82 -67 86 3 155
-20 155 -51 0 -6 5 -11 11 -11 5 0 8 -4 5 -9 -7 -10 -31 -9 -42 2 -9 9 -57 9
-78 1 -25 -9 -19 -41 16 -92 17 -26 34 -49 37 -52 24 -21 52 -60 56 -76 2 -10
10 -41 18 -67 15 -46 15 -48 -8 -63 -12 -8 -32 -16 -43 -19 -47 -9 -102 -47
-121 -83 -10 -20 -19 -40 -20 -44 -1 -5 -1 -9 -2 -10 0 -2 -2 -14 -5 -28 -2
-14 -9 -38 -16 -53 -12 -31 -1 -47 33 -47 23 0 28 -17 21 -70 -3 -25 -6 -114
-6 -197 -1 -84 -3 -153 -7 -153 -3 0 -6 -19 -7 -43 l-2 -42 18 24 c19 23 19
23 24 3 4 -14 0 -22 -11 -25 -14 -4 -13 -5 2 -6 15 -1 16 -4 6 -22 -8 -15 -8
-19 0 -15 10 7 17 -16 11 -39 -1 -5 -4 -24 -5 -42 -2 -17 -7 -42 -11 -55 -4
-13 -8 -36 -10 -53 -1 -16 -3 -30 -4 -30 -1 0 -4 -30 -6 -67 l-4 -68 99 0
c107 0 104 -2 115 60 12 68 26 114 36 124 10 8 11 7 8 -4 -3 -8 -1 -23 4 -32
5 -12 5 -18 -1 -18 -6 0 -7 -8 -2 -21 4 -12 4 -41 1 -65 l-7 -44 131 0 131 0
0 117 c1 65 5 138 9 163 14 72 9 250 -7 290 -14 31 -32 136 -30 168 0 6 1 50
2 96 1 77 3 85 20 83 11 0 19 -4 19 -7 -2 -9 28 -124 65 -255 7 -22 11 -50 11
-62 -1 -13 2 -23 6 -23 4 0 7 -6 7 -12 -1 -7 2 -32 7 -55 6 -32 4 -48 -7 -64
-19 -26 -12 -55 9 -38 8 6 11 15 8 20 -3 5 1 6 9 4 13 -5 43 -72 39 -87 -3
-14 33 -26 53 -17 11 4 16 8 10 8 -5 1 -4 5 3 9 9 6 7 13 -7 29 -11 11 -17 24
-14 27 4 3 1 6 -5 6 -7 0 -11 3 -10 8 2 11 -24 62 -33 62 -15 0 -23 36 -34
145 -10 100 -11 107 -18 140 -10 40 -16 73 -23 115 -3 19 -8 38 -10 42 -7 10
31 28 59 28 57 0 57 45 0 142 -32 55 -97 113 -115 102 -4 -3 -8 0 -8 6 0 7
-13 9 -37 6 -45 -7 -77 8 -53 24 11 7 11 10 2 10 -9 0 -10 5 -3 18 7 13 6 23
-1 30 -9 9 -9 12 -1 12 6 0 10 8 8 18 -3 23 30 88 66 126 16 17 29 35 29 40 0
5 7 17 16 27 9 10 17 33 18 51 1 19 6 40 11 47 4 7 4 16 -1 20 -5 3 -10 19
-11 36 -1 16 -6 36 -9 45 -9 19 -11 27 -13 44 0 8 -8 22 -17 30 -8 9 -13 16
-10 16 3 0 -2 9 -12 21 -47 58 -83 88 -116 99 -34 11 -139 20 -162 13z m-122
-1058 c-2 -11 -9 -23 -15 -27 -9 -6 -9 -8 -1 -8 15 0 9 -156 -7 -218 -19 -71
-34 -45 -34 60 0 53 3 94 8 91 5 -3 11 44 6 60 0 1 4 15 10 30 7 18 7 26 1 22
-6 -3 -10 -1 -10 5 0 6 10 10 23 8 16 -2 21 -9 19 -23z m-52 -311 c0 -8 -4
-12 -10 -9 -5 3 -10 10 -10 16 0 5 5 9 10 9 6 0 10 -7 10 -16z"/>
<path d="M493 1859 c-55 -16 -159 -130 -169 -184 -6 -36 -7 -39 -5 -45 2 -3 3
-23 5 -45 3 -63 24 -95 106 -167 42 -36 77 -72 78 -80 1 -7 7 -35 15 -62 16
-59 12 -93 -14 -101 -10 -4 -19 -9 -19 -13 0 -4 -20 -29 -44 -56 -27 -29 -47
-63 -51 -84 -7 -39 -7 -156 0 -267 2 -38 5 -79 5 -90 0 -11 5 -45 10 -75 18
-105 23 -226 9 -251 -20 -37 -19 -50 5 -92 18 -30 25 -35 30 -22 3 9 12 15 19
12 6 -2 19 -1 28 4 10 5 16 4 17 -4 0 -7 5 -37 9 -67 5 -30 8 -81 7 -112 l-1
-58 117 0 117 0 1 72 c1 39 5 75 10 80 5 5 9 3 9 -4 1 -12 9 -55 18 -98 2 -8
4 -23 4 -32 1 -16 13 -18 101 -18 l100 0 -2 52 c0 29 -9 81 -18 115 -17 56
-21 196 -7 210 3 2 19 5 36 5 32 1 32 2 30 50 -2 26 -7 48 -11 48 -5 0 -6 5
-3 10 4 6 -6 47 -21 93 -21 65 -27 103 -28 185 -1 57 1 105 3 108 6 6 12 51
15 124 2 49 -2 68 -13 78 -13 11 -13 12 -1 6 9 -4 6 3 -6 15 -11 12 -27 24
-35 25 -41 8 -112 44 -142 71 -12 11 -34 25 -48 32 -36 16 -56 67 -54 138 2
89 11 100 82 100 32 -1 77 -8 101 -18 23 -9 42 -14 42 -11 0 4 6 2 13 -3 14
-11 47 -11 47 0 0 4 0 14 0 22 0 17 -50 45 -80 45 -11 0 -20 4 -20 9 0 5 -10
11 -22 13 -49 7 -19 23 44 24 38 1 79 4 92 8 30 7 43 46 16 46 -11 0 -22 5
-25 10 -3 6 -17 10 -29 10 -13 0 -41 8 -62 17 -22 9 -42 16 -46 15 -5 -1 -8 5
-8 14 0 8 -4 12 -10 9 -5 -3 -11 -1 -11 4 -2 14 -6 29 -9 36 -1 3 -3 9 -4 14
-1 11 -63 71 -72 71 -4 0 -15 10 -25 22 -11 11 -19 18 -19 14 0 -3 -10 0 -23
9 -28 18 -141 27 -184 14z"/>
</g>
</svg>
